STARTFONT 2.1
COMMENT Copyright (C) 1990-1991 EWT Consulting
COMMENT Portions Copyright (C) 1994-1995 Cronyx Ltd.
COMMENT Changes Copyright (C) 1996-1997 by Andrey A. Chernov, Moscow, Russia.
COMMENT Modified by Serge Vakulenko, <vak@cronyx.ru>
COMMENT Changes 1999 by Serge Winitzki.
COMMENT This software may be used, modified, copied, distributed, and sold,
COMMENT in both source and binary form provided that the copyright
COMMENT and these terms are retained. Under no circumstances is the author
COMMENT responsible for the proper functioning of this software, nor does
COMMENT the author assume any responsibility for damages incurred with its use.
COMMENT $XFree86$
FONT -Cronyx-Helvetica-Bold-O-Normal--25-180-100-100-P-98-KOI8-R
SIZE 18 96 96
FONTBOUNDINGBOX 31 26 -2 -6
STARTPROPERTIES 21
DEFAULT_CHAR 32
FONT_ASCENT 23
FONT_DESCENT 6
SPACING "P"
FONTNAME_REGISTRY ""
FOUNDRY "Cronyx"
FAMILY_NAME "Helvetica"
WEIGHT_NAME "Bold"
SLANT "O"
SETWIDTH_NAME "Normal"
ADD_STYLE_NAME ""
AVERAGE_WIDTH 98
CHARSET_REGISTRY "KOI8"
CHARSET_ENCODING "R"
PIXEL_SIZE 25
POINT_SIZE 180
RESOLUTION_X 100
RESOLUTION_Y 100
COPYRIGHT "Copyright (C) 1990, 1991 EWT Consulting, Portions Copyright (C) 1994 Cronyx Ltd., Portions Copyright (C) 1996-1997 by Andrey A. Chernov, Moscow, Russia."
_XMBDFED_INFO "Edited with xmbdfed 3.8."
_XFREE86_GLYPH_RANGES "32_126 149 154 156_158 163 179 191_255"
ENDPROPERTIES
CHARS 167
STARTCHAR space
ENCODING 32
SWIDTH 292 0
DWIDTH 7 0
BBX 0 0 -1 0
BITMAP
ENDCHAR
STARTCHAR exclam
ENCODING 33
SWIDTH 412 0
DWIDTH 7 0
BBX 7 17 1 0
BITMAP
0E
0E
1C
1C
1C
1C
38
38
38
38
70
70
70
00
00
E0
E0
ENDCHAR
STARTCHAR quotedbl
ENCODING 34
SWIDTH 1500 0
DWIDTH 9 0
BBX 8 6 2 11
BITMAP
77
77
77
EE
EE
EE
ENDCHAR
STARTCHAR numbersign
ENCODING 35
SWIDTH 824 0
DWIDTH 14 0
BBX 16 17 0 0
BITMAP
00EE
00EE
01DC
03B8
03B8
0FFE
1FFC
0770
0EE0
0EE0
7FF0
7FF0
1DC0
1DC0
7700
7700
7700
ENDCHAR
STARTCHAR dollar
ENCODING 36
SWIDTH 700 0
DWIDTH 14 0
BBX 17 20 0 -2
BITMAP
003000
01F800
07FE00
076F00
0E6700
1CC000
1CC000
0EC000
0FF000
07F800
01B800
019C00
019C00
033800
733800
7B7000
3FF000
1F8000
060000
060000
ENDCHAR
STARTCHAR percent
ENCODING 37
SWIDTH 1353 0
DWIDTH 23 0
BBX 25 17 0 0
BITMAP
03E03800
07F03800
1EF0E000
1C71C000
1C71C000
1EF38000
1FCE0000
0F8E0000
001C0000
0038F800
0073F800
00E7BC00
01C71C00
01C71C00
070F7800
0E07F000
0E03E000
ENDCHAR
STARTCHAR ampersand
ENCODING 38
SWIDTH 1000 0
DWIDTH 17 0
BBX 19 17 0 0
BITMAP
00F000
01F800
073800
073800
073800
03F000
07E000
03C000
0FE000
1EE700
39EE00
70FE00
707C00
703C00
70F800
7FFC00
1F9E00
ENDCHAR
STARTCHAR quotesingle
ENCODING 39
SWIDTH 833 0
DWIDTH 5 0
BBX 4 6 2 11
BITMAP
70
70
70
E0
E0
E0
ENDCHAR
STARTCHAR parenleft
ENCODING 40
SWIDTH 409 0
DWIDTH 9 0
BBX 11 22 0 -5
BITMAP
00E0
01C0
01C0
0700
0700
0700
0E00
1C00
1C00
1C00
1C00
3800
3800
3800
3800
7000
3800
3800
3800
3800
3800
1C00
ENDCHAR
STARTCHAR parenright
ENCODING 41
SWIDTH 409 0
DWIDTH 9 0
BBX 11 22 -1 -5
BITMAP
0700
0380
0380
0380
0380
0380
01C0
0380
0380
0380
0380
0700
0700
0700
0700
0E00
1C00
1C00
1C00
7000
7000
E000
ENDCHAR
STARTCHAR asterisk
ENCODING 42
SWIDTH 1571 0
DWIDTH 11 0
BBX 9 7 3 10
BITMAP
0C00
0C00
7F80
3F00
3C00
7E00
6600
ENDCHAR
STARTCHAR plus
ENCODING 43
SWIDTH 1500 0
DWIDTH 15 0
BBX 13 10 2 4
BITMAP
0380
0380
0380
0700
7FF0
7FF0
0700
0E00
0E00
0E00
ENDCHAR
STARTCHAR comma
ENCODING 44
SWIDTH 1750 0
DWIDTH 7 0
BBX 4 4 1 -2
BITMAP
70
E0
60
C0
ENDCHAR
STARTCHAR hyphen
ENCODING 45
SWIDTH 4500 0
DWIDTH 9 0
BBX 7 2 1 5
BITMAP
FE
FE
ENDCHAR
STARTCHAR period
ENCODING 46
SWIDTH 3500 0
DWIDTH 7 0
BBX 3 2 1 0
BITMAP
E0
E0
ENDCHAR
STARTCHAR slash
ENCODING 47
SWIDTH 471 0
DWIDTH 8 0
BBX 12 17 -1 0
BITMAP
0070
0070
01C0
01C0
01C0
0380
0700
0700
0E00
0E00
1C00
3800
3800
3800
E000
E000
E000
ENDCHAR
STARTCHAR zero
ENCODING 48
SWIDTH 824 0
DWIDTH 14 0
BBX 16 17 0 0
BITMAP
00F0
03FC
0F3C
0E1C
1C0E
1C0E
381C
381C
381C
381C
7038
7038
7038
3870
79E0
3FC0
0F00
ENDCHAR
STARTCHAR one
ENCODING 49
SWIDTH 824 0
DWIDTH 14 0
BBX 11 17 1 0
BITMAP
00E0
01E0
1FC0
1FC0
01C0
01C0
0380
0380
0380
0380
0700
0700
0700
0700
0E00
0E00
0E00
ENDCHAR
STARTCHAR two
ENCODING 50
SWIDTH 824 0
DWIDTH 14 0
BBX 16 17 0 0
BITMAP
01F8
07FE
0F3C
1E1E
1C0E
000E
003C
0078
01F8
03E0
0F00
1E00
3C00
3800
F000
FFF0
FFF0
ENDCHAR
STARTCHAR three
ENCODING 51
SWIDTH 824 0
DWIDTH 14 0
BBX 16 17 0 0
BITMAP
01F8
07FE
0F3C
1E1E
1C0E
001C
0078
03F0
03F0
0078
0078
7038
7038
7878
79E0
7FE0
1F80
ENDCHAR
STARTCHAR four
ENCODING 52
SWIDTH 824 0
DWIDTH 14 0
BBX 16 17 0 0
BITMAP
001E
003E
00FC
00FC
01FC
03DC
0738
0F38
1E38
1C38
7870
7FF8
7FF8
0070
00E0
00E0
00E0
ENDCHAR
STARTCHAR five
ENCODING 53
SWIDTH 824 0
DWIDTH 14 0
BBX 16 17 0 0
BITMAP
03FF
03FF
0700
0E00
0E00
0E00
3FE0
3FF8
3878
003C
0038
0038
0038
7078
F1E0
7FE0
1F80
ENDCHAR
STARTCHAR six
ENCODING 54
SWIDTH 824 0
DWIDTH 14 0
BBX 16 17 0 0
BITMAP
00F8
03FE
0F1C
0E0E
1C00
1C00
3BE0
3FF8
3E78
3C3C
7038
7038
7038
7878
79E0
7FE0
1F80
ENDCHAR
STARTCHAR seven
ENCODING 55
SWIDTH 824 0
DWIDTH 14 0
BBX 16 17 0 0
BITMAP
0FFF
0FFF
001C
003C
0038
0078
00E0
01E0
01C0
03C0
0700
0700
0F00
0E00
1C00
1C00
1C00
ENDCHAR
STARTCHAR eight
ENCODING 56
SWIDTH 824 0
DWIDTH 14 0
BBX 16 17 0 0
BITMAP
00F0
03FC
0738
0E1C
0E1C
0E1C
0E70
0FF0
0FF0
1E78
7878
7038
7038
7878
79E0
7FE0
1F80
ENDCHAR
STARTCHAR nine
ENCODING 57
SWIDTH 824 0
DWIDTH 14 0
BBX 16 17 0 0
BITMAP
01F8
07FE
0F3C
1E1E
1C0E
1C0E
381C
3C3C
1E7C
1FFC
0FF8
0038
0038
7070
71E0
7FC0
1F00
ENDCHAR
STARTCHAR colon
ENCODING 58
SWIDTH 583 0
DWIDTH 7 0
BBX 6 12 1 0
BITMAP
1C
38
00
00
00
00
00
00
00
00
E0
E0
ENDCHAR
STARTCHAR semicolon
ENCODING 59
SWIDTH 500 0
DWIDTH 7 0
BBX 6 14 1 -2
BITMAP
1C
1C
00
00
00
00
00
00
00
00
70
E0
60
C0
ENDCHAR
STARTCHAR less
ENCODING 60
SWIDTH 938 0
DWIDTH 15 0
BBX 17 16 0 0
BITMAP
000180
000F00
001E00
007800
00F000
078000
0F0000
3C0000
3C0000
1E0000
0F0000
03C000
01E000
00F000
007800
001800
ENDCHAR
STARTCHAR equal
ENCODING 61
SWIDTH 1875 0
DWIDTH 15 0
BBX 15 8 1 5
BITMAP
3FFE
7FFC
0000
0000
0000
0000
FFF8
FFF8
ENDCHAR
STARTCHAR greater
ENCODING 62
SWIDTH 938 0
DWIDTH 15 0
BBX 17 16 0 0
BITMAP
0C0000
1E0000
0F0000
03C000
01E000
00F000
007800
001E00
001E00
00F000
01E000
078000
0F0000
780000
F00000
C00000
ENDCHAR
STARTCHAR question
ENCODING 63
SWIDTH 765 0
DWIDTH 13 0
BBX 15 17 0 0
BITMAP
01F0
07FC
0E38
1C1C
1C1C
003C
00F0
01E0
01C0
0380
0700
0700
0000
0000
0000
0E00
0E00
ENDCHAR
STARTCHAR at
ENCODING 64
SWIDTH 1190 0
DWIDTH 25 0
BBX 28 21 -1 -4
BITMAP
0007F000
001FFC00
00F01E00
01C00700
03800380
0307E180
0E3FFB80
0C78F980
1C7071C0
1CE071C0
39C1C380
39C1C300
39C38700
18E38E00
39FFBC00
1879F000
1C000000
0E000000
0F038000
03FF0000
00FC0000
ENDCHAR
STARTCHAR A
ENCODING 65
SWIDTH 941 0
DWIDTH 16 0
BBX 20 17 -1 0
BITMAP
003C00
003C00
00FC00
00FC00
00FC00
01FE00
039C00
039C00
079E00
070E00
1E1E00
1FFE00
1FFE00
3C0F00
700E00
F00F00
F00F00
ENDCHAR
STARTCHAR B
ENCODING 66
SWIDTH 1000 0
DWIDTH 17 0
BBX 18 17 1 0
BITMAP
0FFC00
0FFF00
1C0E00
1C0700
1C0700
1C0700
381E00
3FFC00
3FFE00
380E00
700E00
700E00
700E00
700E00
E03800
FFF800
FFE000
ENDCHAR
STARTCHAR C
ENCODING 67
SWIDTH 1059 0
DWIDTH 18 0
BBX 21 17 0 0
BITMAP
007F80
01FFE0
07C3E0
0F00E0
0E0070
1E0070
380000
380000
380000
380000
700000
7801C0
3801C0
3C0380
3E1F00
1FFE00
07F800
ENDCHAR
STARTCHAR D
ENCODING 68
SWIDTH 1059 0
DWIDTH 18 0
BBX 19 17 1 0
BITMAP
0FFC00
0FFF00
1C1F00
1C0780
1C0380
1C03C0
380380
380380
380380
380380
700700
700F00
700E00
701E00
E0F800
FFF000
FFC000
ENDCHAR
STARTCHAR E
ENCODING 69
SWIDTH 1000 0
DWIDTH 17 0
BBX 18 17 1 0
BITMAP
0FFFC0
0FFFC0
1C0000
1C0000
1C0000
1C0000
380000
3FFC00
3FFC00
380000
700000
700000
700000
700000
E00000
FFFC00
FFFC00
ENDCHAR
STARTCHAR F
ENCODING 70
SWIDTH 941 0
DWIDTH 16 0
BBX 18 17 1 0
BITMAP
0FFFC0
0FFFC0
1C0000
1C0000
1C0000
1C0000
380000
3FFC00
3FFC00
380000
700000
700000
700000
700000
E00000
E00000
E00000
ENDCHAR
STARTCHAR G
ENCODING 71
SWIDTH 1118 0
DWIDTH 19 0
BBX 21 17 0 0
BITMAP
007F80
01FFE0
07C3E0
0F00E0
0E0070
1E0070
380000
380000
380000
381FE0
703FC0
7801C0
3801C0
3C03C0
3E1F80
1FFF80
07F980
ENDCHAR
STARTCHAR H
ENCODING 72
SWIDTH 1059 0
DWIDTH 18 0
BBX 18 17 1 0
BITMAP
0E01C0
0E01C0
1C0380
1C0380
1C0380
1C0380
380700
3FFF00
3FFF00
380700
700E00
700E00
700E00
700E00
E01C00
E01C00
E01C00
ENDCHAR
STARTCHAR I
ENCODING 73
SWIDTH 412 0
DWIDTH 7 0
BBX 7 17 1 0
BITMAP
0E
0E
1C
1C
1C
1C
38
38
38
38
70
70
70
70
E0
E0
E0
ENDCHAR
STARTCHAR J
ENCODING 74
SWIDTH 765 0
DWIDTH 13 0
BBX 15 17 -1 0
BITMAP
000E
000E
001C
001C
001C
001C
0038
0038
0038
0038
0070
0070
7070
7070
71C0
7FC0
1F00
ENDCHAR
STARTCHAR K
ENCODING 75
SWIDTH 1000 0
DWIDTH 17 0
BBX 19 17 1 0
BITMAP
0E03C0
0E0780
1C1E00
1C3C00
1C7800
1CF000
3BC000
3FE000
3FE000
3EF000
78F000
707000
707800
703C00
E03800
E03C00
E01E00
ENDCHAR
STARTCHAR L
ENCODING 76
SWIDTH 824 0
DWIDTH 14 0
BBX 16 17 1 0
BITMAP
0E00
0E00
1C00
1C00
1C00
1C00
3800
3800
3800
3800
7000
7000
7000
7000
E000
FFF0
FFF0
ENDCHAR
STARTCHAR M
ENCODING 77
SWIDTH 1235 0
DWIDTH 21 0
BBX 21 17 1 0
BITMAP
0E0038
0E0038
1E00F0
1E00F0
1F01F0
1F01F0
3F07E0
3F07E0
3F8FE0
3B8EE0
77BDC0
73B9C0
73F9C0
71F1C0
E3E380
E1C380
E1C380
ENDCHAR
STARTCHAR N
ENCODING 78
SWIDTH 1118 0
DWIDTH 19 0
BBX 19 17 1 0
BITMAP
0E00E0
0F00E0
1F01C0
1F81C0
1F81C0
1FC1C0
3BC380
39E380
38E380
38F380
70F700
707F00
703F00
703F00
E03E00
E01E00
E00E00
ENDCHAR
STARTCHAR O
ENCODING 79
SWIDTH 1176 0
DWIDTH 20 0
BBX 22 17 0 0
BITMAP
007F80
01FFE0
07C3E0
0F00F0
0E0070
1E0078
380070
380070
380070
380070
7000E0
7801E0
3801C0
3C03C0
3E1F00
1FFE00
07F800
ENDCHAR
STARTCHAR P
ENCODING 80
SWIDTH 1000 0
DWIDTH 17 0
BBX 19 17 1 0
BITMAP
0FFF00
0FFFC0
1C0380
1C01C0
1C01C0
1C01C0
380380
380700
3FFF00
3FFC00
700000
700000
700000
700000
E00000
E00000
E00000
ENDCHAR
STARTCHAR Q
ENCODING 81
SWIDTH 1053 0
DWIDTH 20 0
BBX 22 19 0 -2
BITMAP
007F80
01FFE0
03E1F0
078078
0E0070
1E0078
1C0038
1C0038
380070
380070
380070
3C0CF0
383DC0
3C1FC0
1F0F80
0FFF80
07FF80
0003C0
000180
ENDCHAR
STARTCHAR R
ENCODING 82
SWIDTH 1059 0
DWIDTH 18 0
BBX 20 17 1 0
BITMAP
0FFF00
0FFFC0
1C0380
1C01C0
1C01C0
1C01C0
380380
380700
3FFF00
3FFE00
701E00
700E00
700700
700700
E00E00
E00F00
E00700
ENDCHAR
STARTCHAR S
ENCODING 83
SWIDTH 1000 0
DWIDTH 17 0
BBX 19 17 0 0
BITMAP
00FE00
03FF80
070780
0E0380
0E0000
0E0000
0E0000
0FFC00
03FF00
000700
000700
000700
700700
780700
7C1C00
3FFC00
0FF000
ENDCHAR
STARTCHAR T
ENCODING 84
SWIDTH 1000 0
DWIDTH 17 0
BBX 21 17 -1 0
BITMAP
0FFFF8
0FFFF8
003800
003800
003800
003800
007000
007000
007000
007000
00E000
00E000
00E000
00E000
01C000
01C000
01C000
ENDCHAR
STARTCHAR U
ENCODING 85
SWIDTH 1059 0
DWIDTH 18 0
BBX 18 17 1 0
BITMAP
0E01C0
0E01C0
1C0380
1C0380
1C0380
1C0380
380700
380700
380700
380700
700E00
700E00
700E00
381C00
787800
3FF000
0FC000
ENDCHAR
STARTCHAR V
ENCODING 86
SWIDTH 941 0
DWIDTH 16 0
BBX 20 17 -1 0
BITMAP
0F00F0
0F00F0
0E01C0
0F03C0
070380
070380
0F0F00
070E00
079E00
039C00
073800
07F800
03F000
03F000
07E000
03C000
03C000
ENDCHAR
STARTCHAR W
ENCODING 87
SWIDTH 1353 0
DWIDTH 23 0
BBX 27 17 -1 0
BITMAP
0E0380E0
0E0380E0
1E0703C0
0E0F8380
0E0F8380
0F1FC780
0E3B8E00
0E3B8E00
0F7BDE00
0771DC00
0EE3B800
0FE3F800
07C1F000
07C1F000
0701C000
0701C000
0701C000
ENDCHAR
STARTCHAR X
ENCODING 88
SWIDTH 1059 0
DWIDTH 18 0
BBX 22 17 -1 0
BITMAP
0E001C
0F003C
0F00F0
0781E0
03C3C0
01E780
01FE00
00FC00
007800
00FC00
03FC00
079E00
0F0F00
1E0780
780780
F003C0
E001C0
ENDCHAR
STARTCHAR Y
ENCODING 89
SWIDTH 1000 0
DWIDTH 17 0
BBX 21 17 -1 0
BITMAP
0E0038
0F0078
0F01E0
0783C0
03C780
01EF00
01FC00
00F800
007000
007000
00E000
00E000
00E000
00E000
01C000
01C000
01C000
ENDCHAR
STARTCHAR Z
ENCODING 90
SWIDTH 882 0
DWIDTH 15 0
BBX 19 17 -1 0
BITMAP
07FFC0
07FFC0
000F00
000E00
001E00
003C00
007000
00F000
01E000
03C000
070000
0F0000
1E0000
1C0000
780000
FFFE00
FFFE00
ENDCHAR
STARTCHAR bracketleft
ENCODING 91
SWIDTH 364 0
DWIDTH 8 0
BBX 10 22 0 -5
BITMAP
07C0
07C0
0700
0E00
0E00
0E00
0E00
1C00
1C00
1C00
1C00
3800
3800
3800
3800
7000
7000
7000
7000
E000
F800
F800
ENDCHAR
STARTCHAR backslash
ENCODING 92
SWIDTH 471 0
DWIDTH 8 0
BBX 12 17 -1 0
BITMAP
0E00
0E00
0E00
0E00
0E00
0700
0E00
0E00
0700
0700
0E00
0700
0700
0700
0700
0700
0700
ENDCHAR
STARTCHAR bracketright
ENCODING 93
SWIDTH 364 0
DWIDTH 8 0
BBX 10 22 -1 -5
BITMAP
07C0
07C0
01C0
0380
0380
0380
0380
0700
0700
0700
0700
0E00
0E00
0E00
0E00
1C00
1C00
1C00
1C00
3800
F800
F800
ENDCHAR
STARTCHAR asciicircum
ENCODING 94
SWIDTH 3000 0
DWIDTH 12 0
BBX 11 4 3 13
BITMAP
0F00
3F00
7F80
E1C0
ENDCHAR
STARTCHAR underscore
ENCODING 95
SWIDTH 7000 0
DWIDTH 14 0
BBX 14 2 -1 -3
BITMAP
FFFC
FFFC
ENDCHAR
STARTCHAR grave
ENCODING 96
SWIDTH 2250 0
DWIDTH 9 0
BBX 8 4 3 13
BITMAP
78
78
1C
06
ENDCHAR
STARTCHAR a
ENCODING 97
SWIDTH 1167 0
DWIDTH 14 0
BBX 16 12 0 0
BITMAP
03E0
1FF0
1C70
0038
0078
0FF0
3FF0
7870
7070
F1E0
7FF8
3F78
ENDCHAR
STARTCHAR b
ENCODING 98
SWIDTH 882 0
DWIDTH 15 0
BBX 16 17 1 0
BITMAP
0E00
0E00
1C00
1C00
1C00
1FF0
3FF8
3C78
383C
381C
7038
7038
7038
7078
F1E0
FFE0
FF80
ENDCHAR
STARTCHAR c
ENCODING 99
SWIDTH 1083 0
DWIDTH 13 0
BBX 15 12 0 0
BITMAP
01F0
0FF8
1E3C
1C1C
3800
7000
7000
7000
3838
78F0
3FE0
0F80
ENDCHAR
STARTCHAR d
ENCODING 100
SWIDTH 882 0
DWIDTH 15 0
BBX 16 17 0 0
BITMAP
0007
0007
000E
000E
000E
03FE
1FFC
1E3C
3C1C
381C
7038
7038
7038
7838
78F0
7FF0
1FF0
ENDCHAR
STARTCHAR e
ENCODING 101
SWIDTH 1250 0
DWIDTH 15 0
BBX 16 12 0 0
BITMAP
01F0
0FF8
1E3C
1C1C
380E
7FFC
7FFC
7000
3800
7878
3FF0
0FC0
ENDCHAR
STARTCHAR f
ENCODING 102
SWIDTH 412 0
DWIDTH 7 0
BBX 11 17 -1 0
BITMAP
01E0
03E0
0700
0700
0700
1FC0
3F80
0E00
0E00
0E00
1C00
1C00
1C00
1C00
3800
3800
3800
ENDCHAR
STARTCHAR g
ENCODING 103
SWIDTH 882 0
DWIDTH 15 0
BBX 16 17 -1 -5
BITMAP
01FF
07FF
0F1E
1E0E
1C0E
1C0E
381C
381C
3C1C
1E3C
3FF8
0FF8
0038
0038
70E0
7FE0
1F80
ENDCHAR
STARTCHAR h
ENCODING 104
SWIDTH 824 0
DWIDTH 14 0
BBX 14 17 1 0
BITMAP
0E00
0E00
1C00
1C00
1C00
1FE0
3FE0
3CF0
3870
3870
70E0
70E0
70E0
70E0
E1C0
E1C0
E1C0
ENDCHAR
STARTCHAR i
ENCODING 105
SWIDTH 412 0
DWIDTH 7 0
BBX 7 17 1 0
BITMAP
0E
0E
00
00
00
1C
38
38
38
38
70
70
70
70
E0
E0
E0
ENDCHAR
STARTCHAR j
ENCODING 106
SWIDTH 318 0
DWIDTH 7 0
BBX 10 22 -2 -5
BITMAP
01C0
01C0
0000
0000
0000
0380
0380
0700
0700
0700
0700
0E00
0E00
0E00
0E00
1C00
1C00
1C00
1C00
3800
F800
F000
ENDCHAR
STARTCHAR k
ENCODING 107
SWIDTH 765 0
DWIDTH 13 0
BBX 15 17 1 0
BITMAP
0E00
0E00
1C00
1C00
1C00
1C78
39E0
3BC0
3F80
3F00
7F00
7F80
7380
73C0
E3C0
E1C0
E1E0
ENDCHAR
STARTCHAR l
ENCODING 108
SWIDTH 412 0
DWIDTH 7 0
BBX 7 17 1 0
BITMAP
0E
0E
1C
1C
1C
1C
38
38
38
38
70
70
70
70
E0
E0
E0
ENDCHAR
STARTCHAR m
ENCODING 109
SWIDTH 1750 0
DWIDTH 21 0
BBX 20 12 1 0
BITMAP
1FE7C0
3FFFC0
3CF9C0
3870E0
3870E0
70E1C0
70E1C0
70E1C0
70E1C0
E1C380
E1C380
E1C380
ENDCHAR
STARTCHAR n
ENCODING 110
SWIDTH 1167 0
DWIDTH 14 0
BBX 13 12 1 0
BITMAP
1FC0
3FE0
3CE0
3870
3870
70E0
70E0
70E0
70E0
E1C0
E1C0
E1C0
ENDCHAR
STARTCHAR o
ENCODING 111
SWIDTH 1250 0
DWIDTH 15 0
BBX 16 12 0 0
BITMAP
03F8
1FFC
1E3C
3C1E
380E
701C
701C
701C
783C
78F0
7FF0
1FC0
ENDCHAR
STARTCHAR p
ENCODING 112
SWIDTH 882 0
DWIDTH 15 0
BBX 16 17 0 -5
BITMAP
0FF8
0FFE
1E3C
1C1E
1C0E
1C0E
381C
381C
383C
3C78
7FF0
7FC0
7000
7000
E000
E000
E000
ENDCHAR
STARTCHAR q
ENCODING 113
SWIDTH 882 0
DWIDTH 15 0
BBX 16 17 -1 -5
BITMAP
01FF
07FF
0F1E
1E0E
1C0E
1C0E
381C
381C
3C1C
1E3C
3FF8
0FF8
0038
0038
0070
0070
0070
ENDCHAR
STARTCHAR r
ENCODING 114
SWIDTH 750 0
DWIDTH 9 0
BBX 10 12 1 0
BITMAP
1DC0
3F80
3E00
3C00
3800
7000
7000
7000
7000
E000
E000
E000
ENDCHAR
STARTCHAR s
ENCODING 115
SWIDTH 1083 0
DWIDTH 13 0
BBX 14 12 0 0
BITMAP
07E0
1FF0
3C70
3800
3E00
3FC0
0FE0
01F0
0070
E1E0
FFC0
3F80
ENDCHAR
STARTCHAR t
ENCODING 116
SWIDTH 467 0
DWIDTH 7 0
BBX 10 15 -1 0
BITMAP
0700
0700
0700
1FC0
3F80
0E00
0E00
0E00
1C00
1C00
1C00
1C00
3800
3E00
1E00
ENDCHAR
STARTCHAR u
ENCODING 117
SWIDTH 1167 0
DWIDTH 14 0
BBX 13 12 1 0
BITMAP
1C38
3870
3870
3870
3870
70E0
70E0
70E0
70E0
73C0
7FC0
1FC0
ENDCHAR
STARTCHAR v
ENCODING 118
SWIDTH 1000 0
DWIDTH 12 0
BBX 15 12 -1 0
BITMAP
1C0E
381C
3C3C
1C38
1E78
1CE0
1CE0
1FE0
0FC0
1F80
0F00
0F00
ENDCHAR
STARTCHAR w
ENCODING 119
SWIDTH 1583 0
DWIDTH 19 0
BBX 22 12 -1 0
BITMAP
1C1C1C
383838
3C7C78
1C7C70
1EFEF0
1DDDC0
1DDDC0
1FDFC0
0F8F80
1F1F00
0E0E00
0E0E00
ENDCHAR
STARTCHAR x
ENCODING 120
SWIDTH 1000 0
DWIDTH 12 0
BBX 15 12 -1 0
BITMAP
1C0E
3C3C
1E78
0FF0
07E0
0780
0780
0FC0
1FE0
79E0
F0F0
E070
ENDCHAR
STARTCHAR y
ENCODING 121
SWIDTH 706 0
DWIDTH 12 0
BBX 16 17 -2 -5
BITMAP
0E07
0E07
1E1E
0E1C
0F3C
0738
0E70
0FF0
07E0
07E0
0780
0780
0700
0F00
1C00
FC00
F800
ENDCHAR
STARTCHAR z
ENCODING 122
SWIDTH 1000 0
DWIDTH 12 0
BBX 15 12 -1 0
BITMAP
0FFE
1FFC
0078
00F0
01E0
0780
0780
0F00
1E00
7800
FFF0
FFF0
ENDCHAR
STARTCHAR braceleft
ENCODING 123
SWIDTH 455 0
DWIDTH 10 0
BBX 12 22 -1 -5
BITMAP
0070
00F0
01E0
0380
0380
0380
0380
0700
0700
0E00
1C00
3800
1C00
0E00
0E00
1C00
1C00
1C00
1C00
3C00
1E00
0E00
ENDCHAR
STARTCHAR bar
ENCODING 124
SWIDTH 304 0
DWIDTH 7 0
BBX 8 23 0 -6
BITMAP
07
07
07
07
0E
0E
0E
0E
1C
1C
00
00
00
38
38
38
70
70
70
70
E0
E0
E0
ENDCHAR
STARTCHAR braceright
ENCODING 125
SWIDTH 455 0
DWIDTH 10 0
BBX 12 22 -1 -5
BITMAP
0700
0780
0380
0380
0380
0380
0380
0700
0700
0380
01C0
0380
0700
0E00
0E00
1C00
1C00
1C00
1C00
7000
F000
E000
ENDCHAR
STARTCHAR asciitilde
ENCODING 126
SWIDTH 3750 0
DWIDTH 15 0
BBX 13 4 3 13
BITMAP
3E38
FF70
EFF0
E3E0
ENDCHAR
STARTCHAR bullet
ENCODING 149
SWIDTH 1571 0
DWIDTH 11 0
BBX 9 7 2 3
BITMAP
1E00
3F00
7F80
7F80
FF00
7E00
3C00
ENDCHAR
STARTCHAR space
ENCODING 154
SWIDTH 292 0
DWIDTH 7 0
BBX 0 0 -1 0
BITMAP
ENDCHAR
STARTCHAR degree
ENCODING 156
SWIDTH 1500 0
DWIDTH 9 0
BBX 8 6 2 11
BITMAP
1C
3E
77
EE
7C
38
ENDCHAR
STARTCHAR twosuperior
ENCODING 157
SWIDTH 1000 0
DWIDTH 8 0
BBX 9 8 2 9
BITMAP
1F00
7700
0700
0E00
1C00
7000
E000
FE00
ENDCHAR
STARTCHAR periodcentered
ENCODING 158
SWIDTH 3000 0
DWIDTH 6 0
BBX 3 2 3 5
BITMAP
E0
E0
ENDCHAR
STARTCHAR afii10071
ENCODING 163
SWIDTH 1000 0
DWIDTH 15 0
BBX 16 15 0 0
BITMAP
071C
071C
0000
01F0
0FF8
1E3C
1C1C
380E
7FFC
7FFC
7000
3800
7878
3FF0
0FC0
ENDCHAR
STARTCHAR afii10023
ENCODING 179
SWIDTH 850 0
DWIDTH 17 0
BBX 19 20 1 0
BITMAP
01C380
038700
000000
0FFFC0
0FFFC0
1C0000
1C0000
1C0000
1C0000
380000
3FFC00
3FFC00
380000
700000
700000
700000
700000
E00000
FFFC00
FFFC00
ENDCHAR
STARTCHAR copyright
ENCODING 191
SWIDTH 1235 0
DWIDTH 21 0
BBX 21 17 1 0
BITMAP
007F00
01E3C0
0701C0
0E7CE0
0CEE60
1DC770
338E60
338060
338060
338060
671CC0
771DC0
33B980
39F380
380E00
1E3C00
07F000
ENDCHAR
STARTCHAR afii10096
ENCODING 192
SWIDTH 1500 0
DWIDTH 18 0
BBX 19 12 0 0
BITMAP
1C7F00
3BFF80
3BC780
3F83C0
3F01C0
7E0380
7E0380
7E0380
7F0780
EF1E00
EFFE00
E3F800
ENDCHAR
STARTCHAR afii10065
ENCODING 193
SWIDTH 1167 0
DWIDTH 14 0
BBX 16 12 0 0
BITMAP
03E0
1FF0
1C70
0038
0078
0FF0
3FF0
7870
7070
F1E0
7FF8
3F78
ENDCHAR
STARTCHAR afii10066
ENCODING 194
SWIDTH 938 0
DWIDTH 15 0
BBX 17 16 0 0
BITMAP
000F00
03FC00
0FF800
1E0000
1FF800
3FFC00
3C1C00
3C1E00
380E00
701C00
701C00
701C00
703C00
707000
7FF000
1FC000
ENDCHAR
STARTCHAR afii10088
ENCODING 195
SWIDTH 1000 0
DWIDTH 14 0
BBX 14 14 1 -2
BITMAP
1C38
1C38
1C38
3870
3870
3870
3870
70E0
70E0
70E0
7FF0
FFE0
00E0
00E0
ENDCHAR
STARTCHAR afii10069
ENCODING 196
SWIDTH 1143 0
DWIDTH 16 0
BBX 17 14 0 -2
BITMAP
03FE00
03FE00
038E00
071C00
071C00
071C00
071C00
0E3800
0E3800
1C3800
7FFE00
FFFC00
E01C00
E01C00
ENDCHAR
STARTCHAR afii10070
ENCODING 197
SWIDTH 1250 0
DWIDTH 15 0
BBX 16 12 0 0
BITMAP
01F0
0FF8
1E3C
1C1C
380E
7FFC
7FFC
7000
3800
7878
3FF0
0FC0
ENDCHAR
STARTCHAR afii10086
ENCODING 198
SWIDTH 850 0
DWIDTH 17 0
BBX 20 20 -1 -5
BITMAP
001C00
003800
003800
01FF00
07FFC0
0F7780
1E73C0
1C71C0
1C71C0
38E380
38E380
3CE780
1EEF00
3FFE00
0FF800
01C000
01C000
038000
038000
038000
ENDCHAR
STARTCHAR afii10068
ENCODING 199
SWIDTH 1083 0
DWIDTH 13 0
BBX 13 12 1 0
BITMAP
1FF8
3FF0
3800
3800
3800
7000
7000
7000
7000
E000
E000
E000
ENDCHAR
STARTCHAR afii10087
ENCODING 200
SWIDTH 1000 0
DWIDTH 12 0
BBX 15 12 -1 0
BITMAP
1C0E
3C3C
1E78
0FF0
07E0
0780
0780
0FC0
1FE0
79E0
F0F0
E070
ENDCHAR
STARTCHAR afii10074
ENCODING 201
SWIDTH 1083 0
DWIDTH 13 0
BBX 14 12 0 0
BITMAP
1C1C
3838
3878
38F8
39F8
77F0
7F70
7E70
7C70
F0E0
E0E0
E0E0
ENDCHAR
STARTCHAR afii10075
ENCODING 202
SWIDTH 867 0
DWIDTH 13 0
BBX 14 15 0 0
BITMAP
0770
07F0
03E0
1C1C
3838
3878
38F8
39F8
77F0
7F70
7E70
7C70
F0E0
E0E0
E0E0
ENDCHAR
STARTCHAR afii10076
ENCODING 203
SWIDTH 1083 0
DWIDTH 13 0
BBX 14 12 1 0
BITMAP
1C78
39E0
3BC0
3F80
3F00
7F00
7F80
7380
73C0
E3C0
E1C0
E1E0
ENDCHAR
STARTCHAR afii10077
ENCODING 204
SWIDTH 1167 0
DWIDTH 14 0
BBX 14 12 0 0
BITMAP
03FC
0FF8
0E38
0E38
0E38
1C70
1C70
1C70
1C70
38E0
78E0
F0E0
ENDCHAR
STARTCHAR afii10078
ENCODING 205
SWIDTH 1417 0
DWIDTH 17 0
BBX 18 12 0 0
BITMAP
1C01C0
3C0780
3E0F80
3F1F80
3FBF80
77F700
73E700
71C700
700700
E00E00
E00E00
E00E00
ENDCHAR
STARTCHAR afii10079
ENCODING 206
SWIDTH 1167 0
DWIDTH 14 0
BBX 13 12 1 0
BITMAP
1C38
3870
3870
3870
3870
7FE0
7FE0
70E0
70E0
E1C0
E1C0
E1C0
ENDCHAR
STARTCHAR afii10080
ENCODING 207
SWIDTH 1250 0
DWIDTH 15 0
BBX 16 12 0 0
BITMAP
03F8
1FFC
1E3C
3C1E
380E
701C
701C
701C
783C
78F0
7FF0
1FC0
ENDCHAR
STARTCHAR afii10081
ENCODING 208
SWIDTH 1167 0
DWIDTH 14 0
BBX 13 12 1 0
BITMAP
1FF8
3FF0
3870
3870
3870
70E0
70E0
70E0
70E0
E1C0
E1C0
E1C0
ENDCHAR
STARTCHAR afii10097
ENCODING 209
SWIDTH 1167 0
DWIDTH 14 0
BBX 15 12 0 0
BITMAP
07FE
1FFC
3C1C
381C
381C
7838
3FF8
1FF8
0F38
3C70
7870
F070
ENDCHAR
STARTCHAR afii10082
ENCODING 210
SWIDTH 882 0
DWIDTH 15 0
BBX 16 17 0 -5
BITMAP
0FF8
0FFE
1E3C
1C1E
1C0E
1C0E
381C
381C
383C
3C78
7FF0
7FC0
7000
7000
E000
E000
E000
ENDCHAR
STARTCHAR afii10083
ENCODING 211
SWIDTH 1083 0
DWIDTH 13 0
BBX 15 12 0 0
BITMAP
01F0
0FF8
1E3C
1C1C
3800
7000
7000
7000
3838
78F0
3FE0
0F80
ENDCHAR
STARTCHAR afii10084
ENCODING 212
SWIDTH 1083 0
DWIDTH 13 0
BBX 16 12 -1 0
BITMAP
1FFF
3FFE
01C0
01C0
01C0
0380
0380
0380
0380
0700
0700
0700
ENDCHAR
STARTCHAR afii10085
ENCODING 213
SWIDTH 706 0
DWIDTH 12 0
BBX 16 17 -2 -5
BITMAP
0E07
0E07
1E1E
0E1C
0F3C
0738
0E70
0FF0
07E0
07E0
0780
0780
0700
0F00
1C00
FC00
F800
ENDCHAR
STARTCHAR afii10072
ENCODING 214
SWIDTH 1750 0
DWIDTH 21 0
BBX 22 12 0 0
BITMAP
1C1C1C
3C3878
1E38F0
0F39E0
07BBC0
07FF00
03FE00
07FF00
0F7780
3CE780
78E3C0
F0E1E0
ENDCHAR
STARTCHAR afii10067
ENCODING 215
SWIDTH 1167 0
DWIDTH 14 0
BBX 14 12 1 0
BITMAP
1FF8
3FF8
3838
3838
3838
7FE0
7FF0
7070
7070
E0E0
FFE0
FFC0
ENDCHAR
STARTCHAR afii10094
ENCODING 216
SWIDTH 1167 0
DWIDTH 14 0
BBX 15 12 0 0
BITMAP
1C00
3800
3800
3800
3FF0
7FF0
7078
7038
7038
E0F0
FFE0
FFC0
ENDCHAR
STARTCHAR afii10093
ENCODING 217
SWIDTH 1417 0
DWIDTH 17 0
BBX 18 12 0 0
BITMAP
1C01C0
380380
380380
380380
3FF380
7FF700
707F00
703F00
703F00
E0FE00
FFEE00
FFCE00
ENDCHAR
STARTCHAR afii10073
ENCODING 218
SWIDTH 1083 0
DWIDTH 13 0
BBX 14 12 0 0
BITMAP
0FF8
3FF8
3838
0038
0038
07E0
07F0
0070
0070
E0E0
FFE0
7FC0
ENDCHAR
STARTCHAR afii10090
ENCODING 219
SWIDTH 1583 0
DWIDTH 19 0
BBX 20 12 0 0
BITMAP
1C3870
3870E0
3870E0
3870E0
3870E0
70E1C0
70E1C0
70E1C0
70E1C0
E1C380
FFFF80
FFFF80
ENDCHAR
STARTCHAR afii10095
ENCODING 220
SWIDTH 1167 0
DWIDTH 14 0
BBX 15 12 0 0
BITMAP
07F0
1FF8
3C78
003C
001C
07F8
07F8
0038
0078
F1E0
7FE0
3F80
ENDCHAR
STARTCHAR afii10091
ENCODING 221
SWIDTH 1429 0
DWIDTH 20 0
BBX 21 14 0 -2
BITMAP
1C3870
1C3870
1C3870
3870E0
3870E0
3870E0
3870E0
70E1C0
70E1C0
70E1C0
7FFFE0
FFFFC0
0001C0
0001C0
ENDCHAR
STARTCHAR afii10089
ENCODING 222
SWIDTH 1167 0
DWIDTH 14 0
BBX 13 12 1 0
BITMAP
1C38
3870
3870
3870
3870
7FE0
3FE0
00E0
00E0
01C0
01C0
01C0
ENDCHAR
STARTCHAR afii10092
ENCODING 223
SWIDTH 1333 0
DWIDTH 16 0
BBX 17 12 0 0
BITMAP
1F0000
3E0000
0E0000
0E0000
0FFC00
1FFC00
1C1E00
1C0E00
1C0E00
383C00
3FF800
3FF000
ENDCHAR
STARTCHAR afii10048
ENCODING 224
SWIDTH 1353 0
DWIDTH 23 0
BBX 24 17 1 0
BITMAP
0E0FE0
0E3FF8
1CF8F8
1DE03C
1DC01C
1FC01E
3F001C
3F001C
3F001C
3F001C
7E0038
7F0078
770070
7780F0
E7C7C0
E3FF80
E0FE00
ENDCHAR
STARTCHAR afii10017
ENCODING 225
SWIDTH 941 0
DWIDTH 16 0
BBX 20 17 -1 0
BITMAP
003C00
003C00
00FC00
00FC00
00FC00
01FE00
039C00
039C00
079E00
070E00
1E1E00
1FFE00
1FFE00
3C0F00
700E00
F00F00
F00F00
ENDCHAR
STARTCHAR afii10018
ENCODING 226
SWIDTH 1000 0
DWIDTH 17 0
BBX 18 17 1 0
BITMAP
0FFF80
0FFF80
1C0000
1C0000
1C0000
1C0000
380000
3FFC00
3FFE00
380E00
700E00
700E00
700E00
700E00
E03800
FFF800
FFE000
ENDCHAR
STARTCHAR afii10040
ENCODING 227
SWIDTH 947 0
DWIDTH 18 0
BBX 19 19 1 -2
BITMAP
0E01C0
0E01C0
0E01C0
0E01C0
1C0380
1C0380
1C0380
1C0380
380700
380700
380700
380700
700E00
700E00
700E00
7FFF00
FFFE00
000E00
000E00
ENDCHAR
STARTCHAR afii10021
ENCODING 228
SWIDTH 1000 0
DWIDTH 19 0
BBX 21 19 0 -2
BITMAP
00FFE0
00FFE0
00E0E0
00E0E0
01C1C0
01C1C0
01C1C0
01C1C0
038380
038380
038380
038380
070700
070700
0E0700
7FFFC0
FFFF80
E00380
E00380
ENDCHAR
STARTCHAR afii10022
ENCODING 229
SWIDTH 1000 0
DWIDTH 17 0
BBX 18 17 1 0
BITMAP
0FFFC0
0FFFC0
1C0000
1C0000
1C0000
1C0000
380000
3FFC00
3FFC00
380000
700000
700000
700000
700000
E00000
FFFC00
FFFC00
ENDCHAR
STARTCHAR afii10038
ENCODING 230
SWIDTH 1235 0
DWIDTH 21 0
BBX 23 17 0 0
BITMAP
000E00
007FC0
03FFE0
07DDF0
0F1C78
0E1C38
3C3878
383838
383838
3C3878
3870E0
3C71E0
1F77C0
0FFF80
07FC00
00E000
00E000
ENDCHAR
STARTCHAR afii10020
ENCODING 231
SWIDTH 1000 0
DWIDTH 17 0
BBX 18 17 1 0
BITMAP
0FFFC0
0FFFC0
1C0000
1C0000
1C0000
1C0000
380000
380000
380000
380000
700000
700000
700000
700000
E00000
E00000
E00000
ENDCHAR
STARTCHAR afii10039
ENCODING 232
SWIDTH 1059 0
DWIDTH 18 0
BBX 22 17 -1 0
BITMAP
0E001C
0F003C
0F00F0
0781E0
03C3C0
01E780
01FE00
00FC00
007800
00FC00
03FC00
079E00
0F0F00
1E0780
780780
F003C0
E001C0
ENDCHAR
STARTCHAR afii10026
ENCODING 233
SWIDTH 1118 0
DWIDTH 19 0
BBX 19 17 1 0
BITMAP
0E00E0
0E00E0
1C01C0
1C03C0
1C07C0
1C0FC0
383F80
387B80
38F380
39E380
778700
7F0700
7E0700
7C0700
F00E00
E00E00
E00E00
ENDCHAR
STARTCHAR afii10027
ENCODING 234
SWIDTH 950 0
DWIDTH 19 0
BBX 20 20 1 0
BITMAP
00F780
00FE00
007C00
0E00E0
0E00E0
1C01C0
1C03C0
1C07C0
1C0FC0
383F80
387B80
38F380
39E380
778700
7F0700
7E0700
7C0700
F00E00
E00E00
E00E00
ENDCHAR
STARTCHAR afii10028
ENCODING 235
SWIDTH 1000 0
DWIDTH 17 0
BBX 19 17 1 0
BITMAP
0E03C0
0E0780
1C1E00
1C3C00
1C7800
1CF000
3BC000
3FE000
3FE000
3EF000
78F000
707000
707800
703C00
E03800
E03C00
E01E00
ENDCHAR
STARTCHAR afii10029
ENCODING 236
SWIDTH 941 0
DWIDTH 16 0
BBX 17 17 0 0
BITMAP
01FF80
03FF80
070700
070700
070700
070700
0E0E00
0E0E00
0E0E00
0E0E00
1C1C00
1C1C00
1C1C00
1C1C00
383800
F83800
F03800
ENDCHAR
STARTCHAR afii10030
ENCODING 237
SWIDTH 1235 0
DWIDTH 21 0
BBX 21 17 1 0
BITMAP
0E0038
0E0038
1E00F0
1E00F0
1F01F0
1F01F0
3F07E0
3F07E0
3F8FE0
3B8EE0
77BDC0
73B9C0
73F9C0
71F1C0
E3E380
E1C380
E1C380
ENDCHAR
STARTCHAR afii10031
ENCODING 238
SWIDTH 1059 0
DWIDTH 18 0
BBX 18 17 1 0
BITMAP
0E01C0
0E01C0
1C0380
1C0380
1C0380
1C0380
380700
3FFF00
3FFF00
380700
700E00
700E00
700E00
700E00
E01C00
E01C00
E01C00
ENDCHAR
STARTCHAR afii10032
ENCODING 239
SWIDTH 1176 0
DWIDTH 20 0
BBX 22 17 0 0
BITMAP
007F80
01FFE0
07C3E0
0F00F0
0E0070
1E0078
380070
380070
380070
380070
7000E0
7801E0
3801C0
3C03C0
3E1F00
1FFE00
07F800
ENDCHAR
STARTCHAR afii10033
ENCODING 240
SWIDTH 1059 0
DWIDTH 18 0
BBX 18 17 1 0
BITMAP
0FFFC0
0FFFC0
1C0380
1C0380
1C0380
1C0380
380700
380700
380700
380700
700E00
700E00
700E00
700E00
E01C00
E01C00
E01C00
ENDCHAR
STARTCHAR afii10049
ENCODING 241
SWIDTH 1059 0
DWIDTH 18 0
BBX 19 17 0 0
BITMAP
03FFE0
07FFE0
1E01C0
1C01C0
1C01C0
1C01C0
380380
380380
3C0380
1FFF80
0FFF00
03C700
078700
0F0700
3C0E00
780E00
F00E00
ENDCHAR
STARTCHAR afii10034
ENCODING 242
SWIDTH 1000 0
DWIDTH 17 0
BBX 19 17 1 0
BITMAP
0FFF00
0FFFC0
1C0380
1C01C0
1C01C0
1C01C0
380380
380700
3FFF00
3FFC00
700000
700000
700000
700000
E00000
E00000
E00000
ENDCHAR
STARTCHAR afii10035
ENCODING 243
SWIDTH 1059 0
DWIDTH 18 0
BBX 21 17 0 0
BITMAP
007F80
01FFE0
07C3E0
0F00E0
0E0070
1E0070
380000
380000
380000
380000
700000
7801C0
3801C0
3C0380
3E1F00
1FFE00
07F800
ENDCHAR
STARTCHAR afii10036
ENCODING 244
SWIDTH 1000 0
DWIDTH 17 0
BBX 21 17 -1 0
BITMAP
0FFFF8
0FFFF8
003800
003800
003800
003800
007000
007000
007000
007000
00E000
00E000
00E000
00E000
01C000
01C000
01C000
ENDCHAR
STARTCHAR afii10037
ENCODING 245
SWIDTH 882 0
DWIDTH 15 0
BBX 17 17 0 0
BITMAP
0E0380
0E0380
1E0F00
0E0E00
0E0E00
0F1E00
0E3800
0F7800
077000
077000
07C000
07C000
07C000
078000
0F0000
7E0000
7C0000
ENDCHAR
STARTCHAR afii10024
ENCODING 246
SWIDTH 1471 0
DWIDTH 25 0
BBX 29 17 -1 0
BITMAP
0701C070
0781C0F0
078383C0
03C38780
01E38F00
00F39E00
00F77800
007FF000
007FF000
007FF000
01EEF000
03CE7800
078E3C00
0F0E1E00
3C1C1E00
781C0F00
F01C0780
ENDCHAR
STARTCHAR afii10019
ENCODING 247
SWIDTH 1000 0
DWIDTH 17 0
BBX 18 17 1 0
BITMAP
0FFC00
0FFF00
1C0E00
1C0700
1C0700
1C0700
381E00
3FFC00
3FFE00
380E00
700E00
700E00
700E00
700E00
E03800
FFF800
FFE000
ENDCHAR
STARTCHAR afii10046
ENCODING 248
SWIDTH 1118 0
DWIDTH 19 0
BBX 20 17 1 0
BITMAP
0E0000
0E0000
1C0000
1C0000
1C0000
1C0000
380000
3FFF00
3FFF80
3803C0
700380
700380
700380
700380
E00F00
FFFE00
FFFC00
ENDCHAR
STARTCHAR afii10045
ENCODING 249
SWIDTH 1353 0
DWIDTH 23 0
BBX 23 17 1 0
BITMAP
0E000E
0E000E
1C001C
1C001C
1C001C
1C001C
380038
3FFF38
3FFFB8
3803F8
7003F0
7003F0
7003F0
7003F0
E00FE0
FFFEE0
FFFCE0
ENDCHAR
STARTCHAR afii10025
ENCODING 250
SWIDTH 1000 0
DWIDTH 17 0
BBX 19 17 0 0
BITMAP
00FE00
03FF80
0F0780
0E0380
000380
000380
000F00
00FE00
00FE00
000F00
000F00
000700
000700
700700
F01E00
7FFC00
1FF800
ENDCHAR
STARTCHAR afii10042
ENCODING 251
SWIDTH 1353 0
DWIDTH 23 0
BBX 25 17 0 0
BITMAP
0E070380
0E070380
1C0E0700
1C0E0700
1C0E0700
1C0E0700
381C0E00
381C0E00
381C0E00
381C0E00
70381C00
70381C00
70381C00
70381C00
E0703800
FFFFF800
FFFFF800
ENDCHAR
STARTCHAR afii10047
ENCODING 252
SWIDTH 1059 0
DWIDTH 18 0
BBX 20 17 0 0
BITMAP
01FE00
07FF80
1F0F80
1C03C0
0001C0
0001E0
0001C0
00FFC0
00FFC0
0001C0
000380
000780
000700
700F00
F87C00
7FF800
1FE000
ENDCHAR
STARTCHAR afii10043
ENCODING 253
SWIDTH 1263 0
DWIDTH 24 0
BBX 26 19 0 -2
BITMAP
0E070380
0E070380
0E070380
0E070380
1C0E0700
1C0E0700
1C0E0700
1C0E0700
381C0E00
381C0E00
381C0E00
381C0E00
70381C00
70381C00
70381C00
7FFFFE00
FFFFFC00
00001C00
00001C00
ENDCHAR
STARTCHAR afii10041
ENCODING 254
SWIDTH 1059 0
DWIDTH 18 0
BBX 18 17 1 0
BITMAP
0E01C0
0E01C0
1C0380
1C0380
1C0380
1C0380
380700
3FFF00
1FFF00
000700
000E00
000E00
000E00
000E00
001C00
001C00
001C00
ENDCHAR
STARTCHAR afii10044
ENCODING 255
SWIDTH 1235 0
DWIDTH 21 0
BBX 23 17 0 0
BITMAP
0FC000
0FC000
038000
038000
038000
038000
070000
07FFE0
07FFF0
070078
0E0070
0E0070
0E0070
0E0070
1C01E0
1FFFC0
1FFF80
ENDCHAR
ENDFONT
